<svg width="63" height="63" viewBox="0 0 63 63" fill="none" xmlns="http://www.w3.org/2000/svg">
<path d="M60.375 18.375V2.625H44.625" stroke="#8CCE3B" stroke-width="2" stroke-linecap="round" stroke-linejoin="round"/>
<path d="M42 21L60.375 2.625" stroke="#8CCE3B" stroke-width="2" stroke-linecap="round" stroke-linejoin="round"/>
<path d="M57.75 44.415V52.29C57.753 53.0211 57.6032 53.7447 57.3103 54.4145C57.0175 55.0844 56.5879 55.6857 56.0492 56.1799C55.5105 56.6741 54.8745 57.0504 54.182 57.2846C53.4894 57.5188 52.7556 57.6058 52.0275 57.54C43.9499 56.6623 36.1909 53.9021 29.3738 49.4813C23.0313 45.451 17.654 40.0737 13.6238 33.7313C9.18745 26.8832 6.42665 19.0864 5.56501 10.9725C5.49941 10.2466 5.58568 9.51501 5.81832 8.82427C6.05096 8.13354 6.42488 7.49882 6.91627 6.96052C7.40766 6.42221 8.00575 5.99212 8.67246 5.69763C9.33917 5.40314 10.0599 5.2507 10.7888 5.25001H18.6638C19.9377 5.23747 21.1727 5.68859 22.1386 6.51928C23.1046 7.34998 23.7355 8.50356 23.9138 9.76501C24.2461 12.2852 24.8626 14.7597 25.7513 17.1413C26.1044 18.0808 26.1809 19.1019 25.9715 20.0836C25.7622 21.0652 25.2758 21.9663 24.57 22.68L21.2363 26.0138C24.9731 32.5856 30.4145 38.0269 36.9863 41.7638L40.32 38.43C41.0337 37.7242 41.9348 37.2379 42.9164 37.0285C43.8981 36.8191 44.9192 36.8956 45.8588 37.2488C48.2403 38.1375 50.7148 38.7539 53.235 39.0863C54.5101 39.2662 55.6747 39.9084 56.5072 40.8909C57.3396 41.8734 57.782 43.1276 57.75 44.415Z" stroke="#8CCE3B" stroke-width="2" stroke-linecap="round" stroke-linejoin="round"/>
</svg>
