<svg width="616" height="602" viewBox="0 0 616 602" fill="none" xmlns="http://www.w3.org/2000/svg">
<path d="M574.439 54.2031C564.54 206.053 388.244 478.857 3 587.008" stroke="#8CCE3B" stroke-width="6" stroke-linecap="round" stroke-dasharray="12 35"/>
<g clip-path="url(#clip0_43_60)">
<path d="M578.143 6.7592L574.279 43.9348" stroke="#8CCE3B" stroke-width="3" stroke-linecap="round" stroke-linejoin="round"/>
<path d="M578.143 6.75914L595.368 54.6674L574.279 43.9348L551.433 50.1002L578.143 6.75914Z" stroke="#8CCE3B" stroke-width="3" stroke-linecap="round" stroke-linejoin="round"/>
</g>
<rect x="144.851" y="81.3046" width="324.642" height="520.695" rx="35" fill="#171717"/>
<rect x="155.23" y="112.443" width="306.766" height="464.186" rx="25" fill="#8CCE3B"/>
<path d="M155.23 137.443C155.23 123.635 166.423 112.443 180.23 112.443H436.996C450.803 112.443 461.996 123.635 461.996 137.443V159.726H155.23V137.443Z" fill="#1B232E"/>
<path d="M165.609 546.932C165.609 536.9 173.741 528.768 183.773 528.768H394.242C404.274 528.768 412.406 536.9 412.406 546.932C412.406 556.964 404.274 565.096 394.242 565.096H183.773C173.741 565.096 165.609 556.964 165.609 546.932Z" fill="#1B232E"/>
<circle cx="437.489" cy="546.932" r="18.1638" fill="#1B232E"/>
<circle cx="180.602" cy="136.084" r="14.9923" fill="#D9D9D9"/>
<path d="M206.858 141.435V131.253H213.6V133.028H209.011V135.454H213.152V137.229H209.011V141.435H206.858ZM217.927 141.584C217.142 141.584 216.466 141.425 215.899 141.107C215.335 140.785 214.901 140.331 214.596 139.745C214.291 139.155 214.139 138.457 214.139 137.651C214.139 136.866 214.291 136.177 214.596 135.583C214.901 134.99 215.331 134.528 215.884 134.196C216.441 133.865 217.094 133.699 217.843 133.699C218.347 133.699 218.816 133.78 219.25 133.943C219.687 134.102 220.068 134.342 220.393 134.664C220.721 134.985 220.977 135.389 221.159 135.877C221.341 136.361 221.432 136.927 221.432 137.577V138.159H214.984V136.846H219.439C219.439 136.541 219.372 136.271 219.24 136.036C219.107 135.8 218.923 135.616 218.688 135.484C218.456 135.348 218.186 135.28 217.878 135.28C217.556 135.28 217.271 135.355 217.023 135.504C216.777 135.65 216.585 135.847 216.446 136.095C216.307 136.341 216.235 136.614 216.232 136.916V138.164C216.232 138.541 216.302 138.868 216.441 139.143C216.583 139.418 216.784 139.63 217.042 139.779C217.301 139.928 217.607 140.003 217.962 140.003C218.197 140.003 218.413 139.97 218.608 139.904C218.804 139.837 218.971 139.738 219.111 139.605C219.25 139.473 219.356 139.31 219.429 139.118L221.388 139.247C221.288 139.718 221.084 140.129 220.776 140.48C220.471 140.828 220.077 141.1 219.593 141.296C219.112 141.488 218.557 141.584 217.927 141.584ZM224.932 131.253V141.435H222.814V131.253H224.932ZM226.629 141.435V133.799H228.747V141.435H226.629ZM227.693 132.814C227.378 132.814 227.108 132.71 226.882 132.501C226.66 132.289 226.549 132.035 226.549 131.74C226.549 131.449 226.66 131.198 226.882 130.99C227.108 130.777 227.378 130.671 227.693 130.671C228.008 130.671 228.276 130.777 228.498 130.99C228.724 131.198 228.836 131.449 228.836 131.74C228.836 132.035 228.724 132.289 228.498 132.501C228.276 132.71 228.008 132.814 227.693 132.814ZM230.443 144.299V133.799H232.531V135.081H232.626C232.719 134.876 232.853 134.667 233.029 134.455C233.208 134.239 233.44 134.06 233.725 133.918C234.013 133.772 234.371 133.699 234.798 133.699C235.355 133.699 235.869 133.845 236.34 134.137C236.81 134.425 237.186 134.861 237.468 135.444C237.75 136.024 237.891 136.752 237.891 137.627C237.891 138.478 237.753 139.198 237.478 139.784C237.206 140.368 236.835 140.81 236.364 141.112C235.897 141.41 235.373 141.559 234.793 141.559C234.382 141.559 234.033 141.491 233.744 141.355C233.459 141.219 233.226 141.049 233.043 140.843C232.861 140.634 232.722 140.424 232.626 140.212H232.561V144.299H230.443ZM232.516 137.617C232.516 138.071 232.579 138.467 232.705 138.805C232.831 139.143 233.014 139.406 233.252 139.595C233.491 139.781 233.781 139.874 234.122 139.874C234.467 139.874 234.759 139.779 234.997 139.59C235.236 139.398 235.417 139.133 235.539 138.795C235.665 138.454 235.728 138.061 235.728 137.617C235.728 137.176 235.667 136.788 235.544 136.453C235.422 136.119 235.241 135.857 235.002 135.668C234.764 135.479 234.47 135.384 234.122 135.384C233.778 135.384 233.486 135.476 233.247 135.658C233.012 135.84 232.831 136.099 232.705 136.433C232.579 136.768 232.516 137.163 232.516 137.617ZM242.783 141.584C241.997 141.584 241.321 141.425 240.754 141.107C240.191 140.785 239.757 140.331 239.452 139.745C239.147 139.155 238.994 138.457 238.994 137.651C238.994 136.866 239.147 136.177 239.452 135.583C239.757 134.99 240.186 134.528 240.739 134.196C241.296 133.865 241.949 133.699 242.698 133.699C243.202 133.699 243.671 133.78 244.105 133.943C244.543 134.102 244.924 134.342 245.249 134.664C245.577 134.985 245.832 135.389 246.014 135.877C246.197 136.361 246.288 136.927 246.288 137.577V138.159H239.84V136.846H244.294C244.294 136.541 244.228 136.271 244.095 136.036C243.963 135.8 243.779 135.616 243.543 135.484C243.311 135.348 243.041 135.28 242.733 135.28C242.412 135.28 242.127 135.355 241.878 135.504C241.633 135.65 241.44 135.847 241.301 136.095C241.162 136.341 241.091 136.614 241.087 136.916V138.164C241.087 138.541 241.157 138.868 241.296 139.143C241.439 139.418 241.639 139.63 241.898 139.779C242.156 139.928 242.463 140.003 242.818 140.003C243.053 140.003 243.268 139.97 243.464 139.904C243.659 139.837 243.827 139.738 243.966 139.605C244.105 139.473 244.211 139.31 244.284 139.118L246.243 139.247C246.144 139.718 245.94 140.129 245.632 140.48C245.327 140.828 244.932 141.1 244.448 141.296C243.968 141.488 243.413 141.584 242.783 141.584Z" fill="white"/>
<g clip-path="url(#clip1_43_60)">
<path d="M378.062 546.673L372.763 551.972C372.114 552.621 371.233 552.986 370.315 552.986C369.397 552.986 368.517 552.621 367.867 551.972C367.218 551.323 366.854 550.442 366.854 549.524C366.854 548.606 367.218 547.725 367.867 547.076L373.167 541.777C373.599 541.344 374.186 541.101 374.798 541.101C375.411 541.101 375.998 541.344 376.43 541.777C376.863 542.21 377.106 542.797 377.106 543.409C377.106 544.021 376.863 544.608 376.43 545.041L371.125 550.34C370.909 550.556 370.615 550.678 370.309 550.678C370.003 550.678 369.71 550.556 369.494 550.34C369.277 550.123 369.156 549.83 369.156 549.524C369.156 549.218 369.277 548.924 369.494 548.708L374.389 543.818" stroke="white" stroke-opacity="0.5" stroke-linecap="round" stroke-linejoin="round"/>
</g>
<g clip-path="url(#clip2_43_60)">
<path d="M401.45 551.257C401.45 551.563 401.329 551.856 401.113 552.072C400.896 552.288 400.603 552.41 400.297 552.41H389.918C389.612 552.41 389.319 552.288 389.102 552.072C388.886 551.856 388.765 551.563 388.765 551.257V544.914C388.765 544.608 388.886 544.315 389.102 544.098C389.319 543.882 389.612 543.761 389.918 543.761H392.224L393.378 542.031H396.837L397.991 543.761H400.297C400.603 543.761 400.896 543.882 401.113 544.098C401.329 544.315 401.45 544.608 401.45 544.914V551.257Z" stroke="white" stroke-opacity="0.5" stroke-linecap="round" stroke-linejoin="round"/>
<path d="M395.107 550.103C396.381 550.103 397.414 549.071 397.414 547.797C397.414 546.523 396.381 545.49 395.107 545.49C393.834 545.49 392.801 546.523 392.801 547.797C392.801 549.071 393.834 550.103 395.107 550.103Z" stroke="white" stroke-opacity="0.5" stroke-linecap="round" stroke-linejoin="round"/>
</g>
<g clip-path="url(#clip3_43_60)">
<path d="M437.778 540.877C437.319 540.877 436.879 541.06 436.555 541.384C436.23 541.708 436.048 542.148 436.048 542.607V547.22C436.048 547.679 436.23 548.119 436.555 548.444C436.879 548.768 437.319 548.95 437.778 548.95C438.237 548.95 438.677 548.768 439.001 548.444C439.325 548.119 439.508 547.679 439.508 547.22V542.607C439.508 542.148 439.325 541.708 439.001 541.384C438.677 541.06 438.237 540.877 437.778 540.877Z" stroke="white" stroke-opacity="0.5" stroke-linecap="round" stroke-linejoin="round"/>
<path d="M441.814 546.067V547.22C441.814 548.291 441.389 549.318 440.632 550.074C439.875 550.831 438.848 551.257 437.778 551.257C436.707 551.257 435.681 550.831 434.924 550.074C434.167 549.318 433.741 548.291 433.741 547.22V546.067" stroke="white" stroke-opacity="0.5" stroke-linecap="round" stroke-linejoin="round"/>
<path d="M437.778 551.257V553.563" stroke="white" stroke-opacity="0.5" stroke-linecap="round" stroke-linejoin="round"/>
<path d="M435.471 553.563H440.084" stroke="white" stroke-opacity="0.5" stroke-linecap="round" stroke-linejoin="round"/>
</g>
<path d="M464.879 141.851H469.105C471.867 141.851 474.105 144.089 474.105 146.851V178.368C474.105 181.129 471.867 183.368 469.105 183.368H464.879V141.851Z" fill="#171717"/>
<path d="M464.879 187.981H469.105C471.867 187.981 474.105 190.219 474.105 192.981V224.498C474.105 227.259 471.867 229.498 469.105 229.498H464.879V187.981Z" fill="#171717"/>
<path d="M417.424 238.148H303.008C295.276 238.148 289.008 244.416 289.008 252.148V263.358C289.008 271.09 295.276 277.358 303.008 277.358H403.424C411.156 277.358 417.424 271.09 417.424 263.358V257.753V254.073C417.424 250.17 419.106 246.49 421.747 243.615C424.157 240.991 426.306 238.148 424.297 238.148C420.566 238.148 417.424 238.148 417.424 238.148Z" fill="#1B232E"/>
<path d="M412.908 456.69H222.856C215.124 456.69 208.856 462.958 208.856 470.69V501.506C208.856 509.238 215.124 515.506 222.856 515.506H398.908C406.64 515.506 412.908 509.238 412.908 501.506V486.098V477.757C412.908 473.714 414.674 469.89 417.579 467.078C422.061 462.74 427.63 456.69 423.828 456.69C417.9 456.69 412.908 456.69 412.908 456.69Z" fill="#1B232E"/>
<path d="M232.467 179.331H411.092C418.824 179.331 425.092 185.599 425.092 193.331V202.812C425.092 210.544 418.824 216.812 411.092 216.812H246.467C238.735 216.812 232.467 210.544 232.467 202.812V198.072V196.702C232.467 191.745 229.794 187.227 225.733 184.383C222.222 181.925 219.215 179.331 222.159 179.331C227.755 179.331 232.467 179.331 232.467 179.331Z" fill="#D9D9D9"/>
<circle cx="196.988" cy="198.024" r="18.6926" fill="#D9D9D9"/>
<path d="M232.467 298.694H411.092C418.824 298.694 425.092 304.962 425.092 312.694V366.575C425.092 374.307 418.824 380.575 411.092 380.575H246.467C238.735 380.575 232.467 374.307 232.467 366.575V339.634V323.963C232.467 320.853 231.425 317.839 229.6 315.32C225.304 309.392 218.113 298.694 222.159 298.694C227.755 298.693 232.467 298.694 232.467 298.694Z" fill="#D9D9D9"/>
<circle cx="196.988" cy="317.386" r="18.6926" fill="#D9D9D9"/>
<path d="M232.467 397.874H411.092C418.824 397.874 425.092 404.142 425.092 411.874V421.354C425.092 429.086 418.824 435.354 411.092 435.354H246.467C238.735 435.354 232.467 429.086 232.467 421.354V416.614V415.245C232.467 410.287 229.794 405.769 225.733 402.925C222.222 400.467 219.215 397.874 222.159 397.874C227.755 397.874 232.467 397.874 232.467 397.874Z" fill="#D9D9D9"/>
<circle cx="196.988" cy="416.566" r="18.6926" fill="#D9D9D9"/>
<defs>
<clipPath id="clip0_43_60">
<rect width="57.6628" height="57.6628" fill="white" transform="translate(534.075 36.3393) rotate(-39.0652)"/>
</clipPath>
<clipPath id="clip1_43_60">
<rect width="13.8391" height="13.8391" fill="white" transform="translate(365.699 540.301)"/>
</clipPath>
<clipPath id="clip2_43_60">
<rect width="13.8391" height="13.8391" fill="white" transform="translate(388.188 540.301)"/>
</clipPath>
<clipPath id="clip3_43_60">
<rect width="13.8391" height="13.8391" fill="white" transform="translate(430.858 540.301)"/>
</clipPath>
</defs>
</svg>
